<?xml version="1.0" encoding="UTF-8"?><svg xmlns="http://www.w3.org/2000/svg" viewBox="0 0 311.54 315"><defs><style>.d{fill:#ffc53a;}.e{fill:#0b91ed;}.f{stroke-width:12px;}.f,.g{fill:none;stroke:#512d7a;stroke-miterlimit:10;}.h{fill:#49b4af;}.i{fill:#512d7a;}.g{stroke-width:15px;}.j{fill:#ff3d68;}</style></defs><g id="a"><path class="d" d="M311.54,66.88V248.11c0,36.94-29.94,66.89-66.88,66.89H66.89C29.95,315,0,285.05,0,248.11V66.88C0,29.94,29.95,0,66.89,0H244.66c36.94,0,66.88,29.94,66.88,66.88Z"/><path class="j" d="M193.38,315H66.89C29.95,315,0,285.05,0,248.11v-70.38c15.08,6.93,53.77,25.93,97.29,57.02,22.61,16.15,40.86,30.45,55.34,42.57,20.65,17.27,33.64,30.13,40.75,37.68Z"/><path class="h" d="M311.54,166.33v81.78c0,36.94-29.94,66.89-66.88,66.89h-106.5c3-11.4,7.58-24.13,14.47-37.68,10.2-20.06,25.46-41.94,48.16-64.07,34.5-33.62,79.16-44.09,110.75-46.92Z"/><path class="e" d="M311.54,66.88v3.99c-25.4,44.93-73.48,104.06-143.75,83.38C107.42,136.48,98.86,44.25,98.3,0H244.66c36.94,0,66.88,29.94,66.88,66.88Z"/></g><g id="b"><g><path class="j" d="M82.22,174s24.8,15,32.2,35.2c7.4,20.2,31.5,36,59.3,40.5v7.5l-79.5,.8-17.2-8.8-6-9.9,11.2-65.3Z"/><polygon class="d" points="236.62 216.1 224.72 122.2 213.32 117.7 91.22 117.7 84.72 128.3 75.22 219 130.42 257.9 222.72 255.6 236.12 248 238.92 222 236.62 216.1"/><path class="h" d="M231.42,189.7s-37.5,15.8-63,63.8l39.8,1.5,19.5-2.2,8.4-4.7,4.4-11-3.8-15.7-5.3-31.7Z"/><path class="e" d="M228.52,151.6s-35.3,15.6-65.3,2.1c-30-13.5-38.3-38.2-38.3-38.2l91.5-.8,8.2,7.5,3.9,29.4Z"/><g><path class="g" d="M238.02,234.3l-12.7-106c-.7-6.1-5.9-10.6-12-10.6H96.72c-6.1,0-11.2,4.6-12,10.6l-12.7,106c-1.3,11,7.2,20.6,18.3,20.6H219.72c11.1,.1,19.6-9.6,18.3-20.6Z"/><path class="i" d="M154.32,57c-25.7,.4-46.2,21.8-46.2,47.6v39.4c0,4.1,3.4,7.5,7.5,7.5h0c4.1,0,7.5-3.4,7.5-7.5v-39.6c0-17.8,14.6-32.7,32.4-32.4,17.3,.3,31.3,14.5,31.3,31.9v40.1c0,4.1,3.4,7.5,7.5,7.5h0c4.1,0,7.5-3.4,7.5-7.5v-40.1c.1-26.1-21.3-47.3-47.5-46.9Z"/><path class="i" d="M180.82,198.7c-2.6,0-4.9,1.4-6.4,3.6-3.2,4.9-10.8,8.4-19.4,8.4s-16.2-3.5-19.4-8.4c-1.4-2.2-3.8-3.6-6.4-3.6h0c-5.8,0-9.5,6.4-6.4,11.4,1.9,3,4.4,5.7,7.6,8,6.7,4.9,15.4,7.6,24.6,7.6s17.9-2.7,24.6-7.6c3.1-2.3,5.7-5,7.6-8,3.1-4.9-.6-11.4-6.4-11.4h0Z"/><line class="f" x1="124.32" y1="168.7" x2="145.32" y2="174.7"/><path class="i" d="M176.82,181.5h0c-5,0-9-4-9-9h0c0-5,4-9,9-9h0c5,0,9,4,9,9h0c0,4.9-4.1,9-9,9Z"/></g></g></g><g id="c"/></svg>